<svg width="310" height="55" viewBox="0 0 310 55" fill="none" xmlns="http://www.w3.org/2000/svg">
<path d="M40.0062 0.0983569C40.2737 0.224796 40.2737 0.224796 40.5506 0.383848C40.6551 0.443444 40.7597 0.50304 40.8674 0.564442C41.0354 0.661894 41.0354 0.661894 41.2068 0.761315C41.3244 0.828687 41.4419 0.896059 41.563 0.965472C41.9373 1.18048 42.3107 1.39684 42.6839 1.61369C42.8636 1.71802 42.8636 1.71802 43.0468 1.82445C43.6331 2.16546 44.2186 2.50768 44.8037 2.85082C45.5456 3.28577 46.29 3.71618 47.0356 4.14469C47.6775 4.51508 47.6775 4.51508 47.8066 4.64435C47.8194 4.88588 47.8238 5.12784 47.8252 5.3697C47.8257 5.4467 47.8263 5.5237 47.8269 5.60304C47.8288 5.86428 47.8298 6.12553 47.8308 6.38678C47.8319 6.57469 47.8331 6.7626 47.8343 6.95051C47.8375 7.46942 47.84 7.98833 47.8423 8.50724C47.8444 8.95171 47.8469 9.39617 47.8493 9.84064C47.8728 14.0532 47.8848 18.2659 47.8946 22.4785C47.8959 23.0271 47.8972 23.5756 47.8985 24.1241C47.899 24.3286 47.899 24.3286 47.8995 24.5373C47.9051 26.7459 47.9163 28.9546 47.9297 31.1632C47.9433 33.4293 47.9512 35.6954 47.9537 37.9615C47.9553 39.2345 47.9595 40.5073 47.9702 41.7802C47.9793 42.8644 47.9833 43.9484 47.9807 45.0326C47.9795 45.586 47.9807 46.139 47.9886 46.6923C47.9957 47.199 47.9959 47.7053 47.9905 48.212C47.9898 48.3952 47.9916 48.5784 47.9963 48.7615C48.0095 49.3144 47.9963 49.8102 47.8066 50.3374C47.3462 50.773 46.8702 51.0065 46.2931 51.27C46.0403 51.4135 45.7886 51.5591 45.5386 51.7075C45.2785 51.8558 45.0182 52.0037 44.7577 52.1515C44.4733 52.3131 44.1889 52.4749 43.9046 52.6368C43.797 52.6981 43.797 52.698 43.6873 52.7605C43.1792 53.0503 42.6736 53.3443 42.1691 53.6404C42.0305 53.7215 41.8918 53.8026 41.7531 53.8837C41.4911 54.0372 41.2294 54.1913 40.9682 54.3462C40.7912 54.4496 40.7912 54.4496 40.6106 54.5551C40.5076 54.6159 40.4046 54.6767 40.2984 54.7393C39.9906 54.8911 39.767 54.9783 39.4241 55C39.1282 54.8805 39.1282 54.8805 38.8115 54.6904C38.6924 54.6201 38.5733 54.5499 38.4506 54.4775C38.3228 54.3999 38.195 54.3223 38.0634 54.2423C37.9282 54.1619 37.7929 54.0817 37.6575 54.0017C37.3762 53.8352 37.0953 53.668 36.8148 53.5002C36.1753 53.1185 35.5291 52.7485 34.8835 52.3773C34.6313 52.2317 34.379 52.086 34.1268 51.9402C34.0019 51.8681 33.877 51.7959 33.7484 51.7216C29.5862 49.3175 29.5862 49.3175 29.2079 49.099C28.9555 48.9532 28.703 48.8074 28.4506 48.6616C27.8227 48.299 27.195 47.9362 26.5674 47.5731C25.3305 46.8578 24.0924 46.1446 22.8515 45.4361C21.6558 44.7534 20.4635 44.0651 19.2754 43.3691C18.4259 42.8716 17.5742 42.3783 16.7214 41.8866C15.7541 41.3288 14.7888 40.768 13.8253 40.2037C12.6825 39.5346 11.5342 38.8753 10.3841 38.2187C9.08761 37.4784 7.79475 36.7318 6.50245 35.9841C6.1227 35.7646 5.74276 35.5453 5.36277 35.3262C4.0807 34.5867 2.79963 33.8456 1.52077 33.1005C1.40017 33.0304 1.27956 32.9603 1.1553 32.8881C1.04524 32.8239 0.935173 32.7596 0.821774 32.6935C0.724589 32.6368 0.627405 32.5802 0.527275 32.5219C0.305597 32.3866 0.305597 32.3866 0.189173 32.27C0.170064 31.9772 0.158504 31.6874 0.151938 31.3942C0.14949 31.3024 0.147042 31.2107 0.14452 31.1162C0.123189 30.2676 0.110863 29.4188 0.101194 28.57C0.0946063 27.9996 0.0851205 27.4296 0.0685995 26.8594C0.052695 26.3083 0.0442784 25.7575 0.0410426 25.2061C0.0385468 24.9964 0.0334259 24.7866 0.0255906 24.577C-0.0218209 23.2469 -0.0218205 23.2469 0.189173 22.7118C0.64499 22.2478 1.10385 22.0344 1.70269 21.7793C1.95585 21.6363 2.2076 21.4908 2.45717 21.3417C2.71732 21.1935 2.97761 21.0455 3.23803 20.8977C3.52537 20.7341 3.8126 20.5703 4.09984 20.4064C4.20806 20.3448 4.20806 20.3448 4.31846 20.2819C6.12991 19.2492 7.93223 18.2006 9.73202 17.1478C10.9615 16.429 12.195 15.7173 13.4287 15.0059C14.0607 14.6413 14.6925 14.2762 15.3243 13.9112C15.5758 13.7659 15.8273 13.6207 16.0788 13.4754C16.5909 13.1796 17.103 12.8836 17.615 12.5876C18.8694 11.8623 20.1248 11.1389 21.383 10.4202C22.7037 9.6654 24.0199 8.90284 25.3368 8.14127C25.8534 7.84251 26.37 7.54381 26.8867 7.24519C27.0128 7.17227 27.139 7.09936 27.2689 7.02424C28.045 6.57602 28.8224 6.13024 29.6008 5.68614C30.5779 5.12847 31.5501 4.56253 32.521 3.99412C33.5096 3.4157 34.5005 2.84147 35.4938 2.27127C36.1405 1.89942 36.7834 1.52269 37.4217 1.13651C37.549 1.0601 37.6764 0.983692 37.8076 0.904971C38.0503 0.759001 38.2923 0.611685 38.5334 0.462847C38.642 0.39786 38.7505 0.332874 38.8624 0.265918C38.9572 0.208068 39.0519 0.150219 39.1495 0.0906164C39.4949 -0.0463005 39.6555 -0.0151977 40.0062 0.0983569ZM38.6018 1.27128C38.4232 1.37859 38.2445 1.48573 38.0656 1.59274C37.9671 1.65183 37.8686 1.71092 37.7671 1.7718C37.1635 2.13063 36.5544 2.47989 35.9459 2.83033C35.6833 2.98179 35.4208 3.13326 35.1582 3.28474C35.0319 3.35758 34.9056 3.43042 34.7755 3.50546C33.4679 4.25994 32.1629 5.01878 30.8596 5.78085C28.8681 6.9451 26.8701 8.09806 24.867 9.24237C22.9622 10.3312 21.0642 11.4316 19.1704 12.5395C17.9409 13.2583 16.7073 13.97 15.4736 14.6815C14.8415 15.0462 14.2097 15.4112 13.5779 15.7762C13.3257 15.9219 13.0734 16.0676 12.8212 16.2133C12.6339 16.3215 12.6339 16.3215 12.4428 16.4319C10.3617 17.634 10.3617 17.634 8.28064 18.836C8.15568 18.9082 8.03073 18.9804 7.90198 19.0547C7.65068 19.1999 7.39938 19.345 7.14807 19.4902C6.50276 19.8628 5.8576 20.2357 5.21269 20.6091C3.85313 21.3958 2.49221 22.1794 1.12057 22.9449C1.12057 23.0218 1.12057 23.0988 1.12057 23.178C1.17647 23.2083 1.23237 23.2386 1.28997 23.2698C2.83672 24.1101 4.35951 24.9869 5.87746 25.878C7.61335 26.8942 9.35954 27.8928 11.106 28.8907C12.4673 29.6686 13.8253 30.4522 15.1825 31.2374C15.6856 31.5284 16.1888 31.819 16.692 32.1096C16.9436 32.2549 17.1952 32.4003 17.4468 32.5456C18.0903 32.9174 18.7339 33.2889 19.3778 33.6601C20.6152 34.3738 21.851 35.0897 23.081 35.8161C24.7396 36.7954 26.4036 37.7635 28.0831 38.7063C28.9594 39.2003 29.8223 39.7147 30.6787 40.2424C30.7692 40.2977 30.8597 40.353 30.9529 40.4099C31.0718 40.4834 31.0718 40.4834 31.1931 40.5583C31.3879 40.6808 31.3879 40.6808 31.6237 40.6626C31.6237 37.8931 31.6237 35.1235 31.6237 32.27C30.5479 31.6546 29.4721 31.0391 28.3638 30.405C24.1088 27.9598 24.1088 27.9597 23.5566 27.5039C23.2389 27.256 22.9201 27.0595 22.5694 26.8616C22.4385 26.7873 22.3075 26.713 22.1726 26.6364C22.1036 26.5976 22.0346 26.5587 21.9635 26.5187C21.5976 26.3126 21.2327 26.1048 20.8676 25.8972C20.7935 25.8551 20.7193 25.813 20.6429 25.7697C19.9098 25.3532 19.181 24.9296 18.4532 24.5039C18.3425 24.4393 18.2317 24.3746 18.1176 24.308C17.909 24.1859 17.7006 24.0633 17.4926 23.9401C17.2795 23.8151 17.0651 23.6924 16.8497 23.5715C16.7429 23.5105 16.636 23.4495 16.5258 23.3866C16.3809 23.3053 16.3809 23.3053 16.233 23.2225C16.1637 23.1693 16.0943 23.1162 16.0228 23.0615C16.0228 22.9461 16.0228 22.8307 16.0228 22.7118C16.1066 22.68 16.1904 22.6481 16.2767 22.6154C16.5995 22.4809 16.8954 22.3274 17.2003 22.1563C17.3153 22.0918 17.4303 22.0274 17.5488 21.961C17.672 21.8914 17.7951 21.8218 17.922 21.7501C18.0511 21.6775 18.1802 21.6048 18.3131 21.5299C19.4154 20.9075 20.509 20.2708 21.6007 19.6301C22.3349 19.1994 23.0715 18.7732 23.8087 18.3479C23.9973 18.2391 23.9973 18.2391 24.1898 18.128C24.4447 17.9809 24.6997 17.8339 24.9546 17.6868C25.5867 17.3222 26.2185 16.9572 26.8503 16.5922C27.1025 16.4465 27.3548 16.3007 27.607 16.155C27.7319 16.0829 27.8568 16.0108 27.9854 15.9365C41.2286 8.28698 41.2286 8.28698 41.6077 8.06808C41.8578 7.92358 42.1079 7.77902 42.3579 7.63438C42.9496 7.29222 43.5416 6.95082 44.1352 6.61194C44.4159 6.45158 44.6965 6.29081 44.977 6.13C45.1754 6.01648 45.3742 5.90356 45.5729 5.79064C45.6928 5.7219 45.8126 5.65316 45.9361 5.58233C46.0418 5.52204 46.1475 5.46175 46.2565 5.39963C46.4996 5.24405 46.6826 5.09087 46.8752 4.87748C46.7563 4.81227 46.6375 4.74706 46.515 4.67987C45.4652 4.10123 44.4243 3.50888 43.3898 2.90318C43.2723 2.83447 43.1548 2.76577 43.0338 2.69498C42.4643 2.36154 41.8956 2.02691 41.3278 1.69064C41.1274 1.5727 40.927 1.45477 40.7266 1.33685C40.6348 1.28201 40.543 1.22718 40.4485 1.17068C40.3642 1.12124 40.2799 1.07179 40.1931 1.02085C40.12 0.977521 40.047 0.93419 39.9717 0.889546C39.4376 0.642359 39.0477 0.998331 38.6018 1.27128ZM38.6637 19.1607C38.5538 19.2254 38.444 19.29 38.3308 19.3567C38.2114 19.4277 38.0919 19.4987 37.9688 19.5718C37.715 19.7214 37.4613 19.8709 37.2075 20.0203C37.1416 20.0592 37.0758 20.098 37.0079 20.138C36.1447 20.6468 35.2757 21.1454 34.4072 21.645C34.2885 21.7133 34.1699 21.7817 34.0476 21.8521C33.9447 21.9113 33.8418 21.9705 33.7357 22.0315C33.615 22.1021 33.4944 22.1728 33.37 22.2455C33.2721 22.2809 33.1743 22.3162 33.0734 22.3526C32.7033 22.5117 32.4775 22.6448 32.2058 22.9449C32.0319 23.6357 32.0566 24.3151 32.0707 25.0235C32.0706 25.2287 32.0699 25.4338 32.0687 25.639C32.0669 26.1777 32.072 26.7162 32.0787 27.2549C32.0843 27.8046 32.0841 28.3543 32.0841 28.904C32.0841 29.5208 32.0846 30.1375 32.0904 30.7542C32.0912 30.8476 32.0919 30.941 32.0926 31.0372C32.094 31.2122 32.0959 31.3873 32.0983 31.5623C32.0997 31.7594 32.0952 31.9565 32.0894 32.1535C32.0317 32.2112 32.0317 32.2112 31.9729 32.27C31.9617 32.4972 31.9587 32.7248 31.9589 32.9522C31.9588 33.1005 31.9586 33.2488 31.9584 33.4015C31.9589 33.5673 31.9593 33.7332 31.9597 33.899C31.9597 34.0724 31.9597 34.2458 31.9597 34.4193C31.9596 34.8915 31.9603 35.3638 31.9611 35.836C31.9619 36.329 31.9619 36.822 31.9621 37.315C31.9624 38.2492 31.9634 39.1835 31.9645 40.1177C31.9658 41.181 31.9665 42.2443 31.9671 43.3076C31.9683 45.4954 31.9703 47.6833 31.9729 49.8712C32.061 49.9199 32.149 49.9686 32.2397 50.0189C32.5733 50.2037 32.9069 50.3887 33.2404 50.5738C33.3834 50.6531 33.5265 50.7324 33.6696 50.8116C34.9273 51.5079 36.1658 52.2336 37.4003 52.9703C37.8134 53.2156 38.2288 53.4568 38.6455 53.6959C38.8357 53.8053 38.8357 53.8053 39.0298 53.9168C39.272 54.0767 39.272 54.0767 39.4241 54.0675C39.4241 42.4507 39.4241 30.834 39.4241 18.8652C39.103 18.8652 38.94 18.9969 38.6637 19.1607ZM30.6959 23.9653C30.5755 24.0353 30.4551 24.1053 30.331 24.1774C30.2005 24.2539 30.07 24.3304 29.9355 24.4092C29.8005 24.4879 29.6655 24.5664 29.5305 24.645C29.2475 24.8095 28.9647 24.9744 28.682 25.1394C27.9804 25.5487 27.277 25.9551 26.5738 26.3617C26.4452 26.4362 26.3167 26.5108 26.1842 26.5876C26.0047 26.6914 26.0047 26.6914 25.8216 26.7974C25.6639 26.8888 25.6639 26.8888 25.503 26.982C25.2567 27.1207 25.0088 27.2506 24.7546 27.3743C24.7546 27.4513 24.7546 27.5282 24.7546 27.6075C24.8105 27.6378 24.8665 27.6681 24.924 27.6993C26.3685 28.4839 27.7943 29.2971 29.2115 30.13C29.3194 30.1933 29.4273 30.2566 29.5385 30.3219C29.7806 30.4646 30.0222 30.6081 30.2634 30.7522C30.3893 30.8269 30.5152 30.9017 30.645 30.9787C30.8173 31.0817 30.8173 31.0817 30.9931 31.1867C31.2554 31.3559 31.2554 31.3559 31.5072 31.3375C31.5072 28.7987 31.5072 26.26 31.5072 23.6443C31.1723 23.6443 30.9848 23.7965 30.6959 23.9653Z" fill="#00A79A"/>
<path d="M303.15 44.8255V10H309.285V44.8255H303.15Z" fill="#021110"/>
<path d="M299.786 34.7238H283.319C283.565 36.4458 284.165 37.722 285.118 38.5523C286.071 39.3825 287.178 39.7977 288.439 39.7977C289.608 39.7977 290.592 39.5363 291.391 39.0135C292.191 38.46 292.79 37.599 293.19 36.4304H299.786C299.509 37.8757 299.017 39.1519 298.31 40.2589C297.603 41.366 296.742 42.3039 295.727 43.0727C294.712 43.8107 293.59 44.3796 292.36 44.7793C291.161 45.1483 289.931 45.3329 288.67 45.3329C287.224 45.3329 285.795 45.0868 284.38 44.5948C282.996 44.0721 281.751 43.3033 280.644 42.2885C279.567 41.243 278.691 39.9514 278.015 38.4139C277.369 36.8456 277.046 35.0005 277.046 32.8787C277.046 30.8799 277.369 29.0963 278.015 27.528C278.66 25.9597 279.521 24.6374 280.598 23.5612C281.674 22.4849 282.889 21.67 284.242 21.1165C285.625 20.5322 287.025 20.2401 288.439 20.2401C289.884 20.2401 291.284 20.5322 292.637 21.1165C293.99 21.67 295.189 22.4849 296.235 23.5612C297.311 24.6374 298.172 25.9597 298.818 27.528C299.463 29.0963 299.786 30.8799 299.786 32.8787V34.7238ZM293.421 30.3879C293.083 28.7888 292.437 27.5895 291.483 26.79C290.561 25.9597 289.546 25.5446 288.439 25.5446C287.301 25.5446 286.271 25.9597 285.349 26.79C284.426 27.5895 283.78 28.7888 283.411 30.3879H293.421Z" fill="#021110"/>
<path d="M274.695 34.7238H258.228C258.474 36.4458 259.074 37.722 260.027 38.5523C260.98 39.3825 262.088 39.7977 263.348 39.7977C264.517 39.7977 265.501 39.5363 266.3 39.0135C267.1 38.46 267.7 37.599 268.099 36.4304H274.695C274.419 37.8757 273.927 39.1519 273.219 40.2589C272.512 41.366 271.651 42.3039 270.636 43.0727C269.622 43.8107 268.499 44.3796 267.269 44.7793C266.07 45.1483 264.84 45.3329 263.579 45.3329C262.134 45.3329 260.704 45.0868 259.289 44.5948C257.905 44.0721 256.66 43.3033 255.553 42.2885C254.477 41.243 253.6 39.9514 252.924 38.4139C252.278 36.8456 251.955 35.0005 251.955 32.8787C251.955 30.8799 252.278 29.0963 252.924 27.528C253.569 25.9597 254.431 24.6374 255.507 23.5612C256.583 22.4849 257.798 21.67 259.151 21.1165C260.535 20.5322 261.934 20.2401 263.348 20.2401C264.794 20.2401 266.193 20.5322 267.546 21.1165C268.899 21.67 270.098 22.4849 271.144 23.5612C272.22 24.6374 273.081 25.9597 273.727 27.528C274.373 29.0963 274.695 30.8799 274.695 32.8787V34.7238ZM268.33 30.3879C267.992 28.7888 267.346 27.5895 266.393 26.79C265.47 25.9597 264.455 25.5446 263.348 25.5446C262.211 25.5446 261.18 25.9597 260.258 26.79C259.335 27.5895 258.69 28.7888 258.321 30.3879H268.33Z" fill="#021110"/>
<path d="M242.567 36.615C242.567 37.599 242.767 38.2602 243.167 38.5984C243.567 38.9367 244.305 39.1058 245.381 39.1058H249.763V44.8255H244.551C242.091 44.8255 240.123 44.2105 238.647 42.9805C237.171 41.7504 236.433 39.7823 236.433 37.0763V13.9208H242.567V36.615ZM249.763 20.3785V27.3436L243.767 24.207V23.5151L249.763 20.3785Z" fill="#021110"/>
<path d="M217.482 21.9468C217.482 23.0538 217.867 23.8841 218.635 24.4376C219.435 24.9604 220.419 25.3755 221.587 25.683C222.756 25.9905 224.017 26.2827 225.37 26.5594C226.754 26.8362 228.03 27.2821 229.198 27.8971C230.367 28.5121 231.335 29.4039 232.104 30.5724C232.904 31.7102 233.304 33.2939 233.304 35.3235C233.304 36.984 232.996 38.4447 232.381 39.7055C231.766 40.9355 230.936 41.981 229.89 42.8421C228.845 43.6723 227.63 44.3027 226.246 44.7333C224.862 45.1638 223.402 45.379 221.864 45.379C220.327 45.379 218.866 45.1791 217.482 44.7794C216.129 44.3489 214.945 43.7185 213.93 42.8882C212.916 42.0579 212.085 41.0124 211.44 39.7516C210.825 38.4908 210.486 37.0148 210.425 35.3235H216.698C216.76 36 216.944 36.615 217.252 37.1685C217.559 37.6913 217.959 38.1372 218.451 38.5062C218.943 38.8444 219.496 39.1058 220.111 39.2903C220.726 39.4748 221.357 39.5671 222.003 39.5671C222.618 39.5671 223.202 39.4902 223.755 39.3365C224.34 39.1519 224.847 38.8906 225.278 38.5523C225.739 38.1833 226.092 37.7374 226.338 37.2146C226.615 36.6919 226.754 36.0615 226.754 35.3235C226.754 34.2164 226.354 33.4015 225.554 32.8787C224.786 32.356 223.817 31.9408 222.648 31.6333C221.48 31.2951 220.204 30.9876 218.82 30.7108C217.436 30.434 216.16 29.9882 214.991 29.3731C213.823 28.7274 212.839 27.8356 212.039 26.6978C211.27 25.56 210.886 23.9763 210.886 21.9468C210.886 20.3477 211.194 18.9486 211.809 17.7493C212.424 16.5192 213.239 15.4891 214.253 14.6588C215.268 13.8285 216.437 13.2135 217.759 12.8137C219.081 12.3832 220.45 12.168 221.864 12.168C223.217 12.168 224.524 12.3678 225.785 12.7676C227.076 13.1674 228.23 13.7824 229.244 14.6127C230.259 15.4122 231.089 16.427 231.735 17.657C232.381 18.8563 232.735 20.2862 232.796 21.9468H226.477C226.415 20.7167 225.969 19.7942 225.139 19.1792C224.34 18.5642 223.294 18.2567 222.003 18.2567C220.711 18.2567 219.635 18.5642 218.774 19.1792C217.913 19.7635 217.482 20.686 217.482 21.9468Z" fill="#021110"/>
<path d="M196.497 34.7238H180.03C180.276 36.4458 180.876 37.722 181.829 38.5523C182.782 39.3825 183.889 39.7977 185.15 39.7977C186.319 39.7977 187.303 39.5363 188.102 39.0135C188.902 38.46 189.501 37.599 189.901 36.4304H196.497C196.22 37.8757 195.728 39.1519 195.021 40.2589C194.314 41.366 193.453 42.3039 192.438 43.0727C191.423 43.8107 190.301 44.3796 189.071 44.7793C187.872 45.1483 186.641 45.3329 185.381 45.3329C183.935 45.3329 182.505 45.0868 181.091 44.5948C179.707 44.0721 178.462 43.3033 177.355 42.2885C176.278 41.243 175.402 39.9514 174.725 38.4139C174.08 36.8456 173.757 35.0005 173.757 32.8787C173.757 30.8799 174.08 29.0963 174.725 27.528C175.371 25.9597 176.232 24.6374 177.309 23.5612C178.385 22.4849 179.6 21.67 180.953 21.1165C182.336 20.5322 183.736 20.2401 185.15 20.2401C186.595 20.2401 187.995 20.5322 189.348 21.1165C190.701 21.67 191.9 22.4849 192.945 23.5612C194.022 24.6374 194.883 25.9597 195.529 27.528C196.174 29.0963 196.497 30.8799 196.497 32.8787V34.7238ZM190.132 30.3879C189.793 28.7888 189.148 27.5895 188.194 26.79C187.272 25.9597 186.257 25.5446 185.15 25.5446C184.012 25.5446 182.982 25.9597 182.06 26.79C181.137 27.5895 180.491 28.7888 180.122 30.3879H190.132Z" fill="#021110"/>
<path d="M172.7 20.3785V27.3436L166.657 24.207V23.5151L172.7 20.3785ZM159.185 44.8255V20.6091H165.319V44.8255H159.185Z" fill="#021110"/>
<path d="M154.932 20.6091V44.8255H148.798V41.5044C147.937 42.7344 146.907 43.6723 145.707 44.3181C144.508 44.9331 143.186 45.2406 141.74 45.2406C140.51 45.2406 139.311 44.9946 138.142 44.5026C137.005 44.0106 135.99 43.2725 135.098 42.2885C134.237 41.3045 133.545 40.0744 133.022 38.5984C132.5 37.0916 132.238 35.3388 132.238 33.34V20.6091H138.373V33.4784C138.373 34.5854 138.511 35.554 138.788 36.3843C139.065 37.1838 139.434 37.8604 139.895 38.4139C140.387 38.9674 140.941 39.3825 141.556 39.6593C142.202 39.9361 142.878 40.0744 143.585 40.0744C144.293 40.0744 144.954 39.9361 145.569 39.6593C146.215 39.3825 146.768 38.9674 147.229 38.4139C147.721 37.8604 148.106 37.1838 148.383 36.3843C148.659 35.554 148.798 34.5854 148.798 33.4784V20.6091H154.932Z" fill="#021110"/>
<path d="M121.982 36.615C121.982 37.599 122.181 38.2602 122.581 38.5984C122.981 38.9367 123.719 39.1058 124.795 39.1058H129.177V44.8255H123.965C121.505 44.8255 119.537 44.2105 118.061 42.9805C116.585 41.7504 115.847 39.7823 115.847 37.0763V13.9208H121.982V36.615ZM129.177 20.3785V27.3436L123.181 24.207V23.5151L129.177 20.3785Z" fill="#021110"/>
<path d="M88.4414 32.7403C88.4414 30.6185 88.7797 28.7734 89.4562 27.2051C90.1635 25.6368 91.0706 24.3299 92.1777 23.2843C93.3154 22.2081 94.5916 21.4085 96.0061 20.8858C97.4514 20.363 98.9121 20.1016 100.388 20.1016C101.895 20.1016 103.356 20.363 104.77 20.8858C106.215 21.4085 107.492 22.2081 108.599 23.2843C109.736 24.3299 110.644 25.6368 111.32 27.2051C111.997 28.7734 112.335 30.6185 112.335 32.7403V44.8254H106.2V42.4268C105.278 43.4109 104.201 44.1489 102.971 44.6409C101.772 45.1329 100.527 45.3789 99.235 45.3789C97.9127 45.3789 96.6058 45.1175 95.3142 44.5948C94.0227 44.072 92.8695 43.2879 91.8548 42.2423C90.84 41.166 90.0097 39.8437 89.3639 38.2754C88.7489 36.7072 88.4414 34.8621 88.4414 32.7403ZM94.8069 32.7403C94.8069 34.0011 94.9606 35.1081 95.2681 36.0614C95.6064 36.9839 96.0369 37.7681 96.5597 38.4138C97.1132 39.0288 97.7282 39.4901 98.4047 39.7976C99.112 40.1051 99.8193 40.2589 100.527 40.2589C101.234 40.2589 101.926 40.1051 102.602 39.7976C103.279 39.4901 103.878 39.0288 104.401 38.4138C104.955 37.7681 105.385 36.9839 105.693 36.0614C106.031 35.1081 106.2 34.0011 106.2 32.7403C106.2 31.5717 106.031 30.557 105.693 29.6959C105.385 28.8041 104.955 28.0815 104.401 27.528C103.878 26.9437 103.279 26.5132 102.602 26.2364C101.926 25.9289 101.234 25.7752 100.527 25.7752C99.8193 25.7752 99.112 25.9289 98.4047 26.2364C97.7282 26.5132 97.1132 26.9437 96.5597 27.528C96.0369 28.0815 95.6064 28.8041 95.2681 29.6959C94.9606 30.557 94.8069 31.5717 94.8069 32.7403Z" fill="#021110"/>
<path d="M85.0005 12.7215V45.379H84.2625L66.3655 26.7901V44.8255H60V12.168H60.738L78.6351 30.7569V12.7215H85.0005Z" fill="#021110"/>
</svg>
